<?xml version="1.0" encoding="UTF-8"?>
<svg xmlns="http://www.w3.org/2000/svg" xmlns:xlink="http://www.w3.org/1999/xlink" width="2112" height="2112" viewBox="0 0 2112 2112">
<rect x="-211.2" y="-211.2" width="2534.4" height="2534.4" fill="rgb(100%, 100%, 100%)" fill-opacity="1"/>
<path fill-rule="evenodd" fill="rgb(19.993591%, 80.076599%, 19.993591%)" fill-opacity="1" d="M 1551.351562 920.820312 L 1553.648438 919.148438 C 1552.078125 937.949219 1529.46875 976.851562 1526.191406 988.621094 C 1532.359375 987.199219 1538.578125 984.21875 1546.871094 974.769531 C 1546.230469 988.011719 1540.300781 1006.730469 1531.371094 1017.441406 C 1545.230469 1014.410156 1560.589844 1006.539062 1569.421875 994.699219 C 1571.5 1007.269531 1562.800781 1062.179688 1557.460938 1073.929688 C 1563.679688 1074.488281 1572.730469 1070.308594 1579.890625 1065.371094 C 1579.539062 1075.871094 1574.011719 1116.738281 1570.089844 1126.371094 C 1583.859375 1122.027344 1598.878906 1107.71875 1617.511719 1100.351562 C 1610.628906 1121.894531 1602.351562 1141.289062 1590.988281 1160.855469 C 1580.570312 1178.683594 1570.871094 1198.570312 1554.050781 1216.167969 C 1561.398438 1212.777344 1568.21875 1209.804688 1575.660156 1206.949219 C 1567.449219 1221.652344 1549.519531 1274.125 1530.988281 1292.148438 C 1537.21875 1291.605469 1545.671875 1289.335938 1550.96875 1286.664062 C 1550.730469 1297.1875 1534.308594 1314.128906 1527.449219 1322.09375 C 1519.828125 1330.808594 1508.109375 1343.476562 1498.089844 1348.316406 C 1516.988281 1347.34375 1543.070312 1345.871094 1566.449219 1351.953125 L 1559.53125 1360.425781 C 1566.480469 1361.425781 1585.808594 1364.078125 1600.070312 1363.558594 C 1584.46875 1372.289062 1572.171875 1382.328125 1552.199219 1389.558594 C 1558.621094 1395.933594 1569.230469 1396.859375 1578.25 1399.097656 C 1560.28125 1411.035156 1496.890625 1446.585938 1472.25 1456.507812 C 1480.941406 1461.28125 1491.769531 1464.574219 1503.820312 1465.003906 C 1492.628906 1474.300781 1473.671875 1480.636719 1459.160156 1487.359375 C 1434.878906 1498.386719 1413.941406 1504.660156 1388.539062 1512.683594 C 1363.089844 1520.621094 1337.851562 1520.015625 1311.578125 1518.570312 C 1297.148438 1517.765625 1281.828125 1516.058594 1267.578125 1513.050781 C 1266.449219 1519.21875 1263.210938 1524.867188 1260.46875 1530.527344 C 1258.148438 1535.207031 1248.121094 1554.261719 1245.480469 1558.765625 C 1224.160156 1595.445312 1211.480469 1607.019531 1174.808594 1635.253906 C 1155.570312 1650.117188 1132.03125 1667.960938 1109.238281 1673.828125 C 1111.519531 1661.410156 1122.78125 1650.507812 1122.480469 1637.296875 C 1088.660156 1665.5 1039.75 1699.578125 991.996094 1694.675781 C 996.546875 1687.0625 1004.941406 1682.128906 1008.320312 1673.140625 C 991.6875 1678.042969 975.519531 1683.183594 957.128906 1684.421875 C 939.8125 1685.566406 920.851562 1681.773438 903.691406 1685.632812 C 921.292969 1678.011719 937.835938 1658.535156 954.398438 1646.8125 C 944.476562 1649.617188 936.410156 1646.890625 926.441406 1648.898438 C 940.605469 1636.839844 954.855469 1625.410156 968.710938 1613.429688 C 965.925781 1615.761719 914.738281 1611.242188 907.738281 1610.890625 C 895.710938 1610.246094 888.570312 1605.4375 877.285156 1602.484375 C 880.789062 1596.695312 886.089844 1592.742188 890.394531 1587.863281 C 869.980469 1588.816406 828.152344 1586.777344 802.671875 1577.695312 C 805.582031 1573.375 807.785156 1568.796875 809.28125 1563.832031 C 789.226562 1566.136719 764.074219 1562.984375 741.671875 1558.324219 L 748.144531 1549.179688 C 723.265625 1543.550781 712.234375 1534.859375 693.160156 1524.644531 C 706.730469 1515.691406 716.25 1511.878906 725.402344 1508.550781 C 714.238281 1499.957031 689.527344 1484.929688 680.164062 1475.214844 C 689.832031 1471.550781 697.757812 1469.050781 707.492188 1462.792969 C 678.136719 1459.050781 626.507812 1448.539062 604.78125 1424.519531 C 614.855469 1417.929688 626.15625 1412.714844 633.875 1408.214844 C 616.429688 1400.382812 597.601562 1392.28125 582.320312 1378.839844 C 585.882812 1374.066406 589.839844 1369.402344 593.269531 1364.660156 C 578.8125 1358.226562 565.488281 1346.246094 551.417969 1334.875 C 561.140625 1333.039062 566.585938 1328.484375 569.804688 1324.21875 C 569.824219 1324.226562 507.460938 1273.835938 494.488281 1251.546875 C 525.90625 1262.347656 556.867188 1250.386719 588.34375 1244.6875 C 584.46875 1241.898438 582.148438 1237.152344 576.855469 1234.960938 C 587.46875 1230.113281 651.671875 1211.441406 660.421875 1223.746094 C 657.03125 1218.984375 653.355469 1212.992188 647.667969 1209.5625 C 688.644531 1199.046875 722.402344 1203.742188 762.9375 1207.773438 C 750.027344 1206.414062 729.480469 1178.824219 721.925781 1168.441406 C 711.558594 1154.125 701.632812 1119.257812 685.90625 1111.199219 L 685.941406 1111.359375 C 696.148438 1112.230469 706.941406 1111.988281 717.503906 1109.320312 C 710.910156 1097.839844 704.253906 1084.109375 694.773438 1074.410156 C 684.125 1063.460938 673.621094 1063.441406 661.726562 1054.839844 C 647.53125 1044.691406 642.019531 1041.128906 642.84375 1024.410156 L 653.402344 1024.328125 C 634.363281 995.820312 622.210938 961.488281 617.546875 926.289062 L 627.277344 927.800781 C 612.609375 914.570312 606.445312 902.171875 599.058594 884.828125 C 614.117188 889.269531 624.027344 894.390625 640 895.609375 C 653.703125 896.808594 675.617188 889.640625 687.058594 894.730469 C 683.980469 891.921875 680.890625 886.78125 676.757812 883.808594 C 699.394531 878.210938 712.984375 875.921875 735.925781 878.78125 C 730.5625 863.820312 723.378906 848.308594 716.089844 834.179688 C 723.621094 837.488281 731.800781 840.800781 739.738281 843.050781 C 729.71875 818.289062 731.082031 789.96875 725.066406 767.550781 C 729.363281 771.339844 734.851562 773.96875 739.285156 777.398438 C 730.4375 749.140625 739.335938 717.398438 734.480469 689.121094 C 750.464844 697.050781 760.800781 718.570312 778.957031 725.121094 C 779.160156 693.621094 777.898438 661.710938 776.964844 630.730469 C 781.476562 633.519531 788.550781 634.621094 793.09375 637.570312 C 792.1875 603.460938 788.070312 571.949219 798.628906 536.738281 C 806.847656 544.339844 813.355469 550.179688 821.398438 550.761719 C 822.832031 523.941406 825.539062 481.671875 833.316406 455.578125 C 838.292969 461.351562 846.320312 467.488281 854.265625 470.039062 C 853.03125 431.261719 861.175781 396.320312 870.097656 362.191406 C 872.40625 353.421875 878.570312 344.53125 882.777344 337.109375 L 883.390625 342.691406 C 887.789062 332.269531 895.585938 323.339844 899.851562 313.300781 C 898.109375 317.199219 898.496094 344.339844 898.460938 350.699219 C 898.46875 363.039062 903.710938 411.28125 901.160156 422.578125 C 903.160156 419.410156 914.933594 410.320312 916.789062 407.371094 C 917.441406 426.160156 928.179688 506.261719 927.78125 524.699219 C 934.179688 521.46875 940.40625 516.859375 945.902344 513.460938 C 945.140625 527.21875 948.882812 544.871094 945.648438 559.46875 C 956.878906 553.25 961.300781 544.5 965.6875 542.289062 C 971.972656 561.859375 985.386719 593.519531 987.5625 605.261719 C 994.816406 592.679688 1005.570312 582.101562 1014.039062 571.179688 C 1017.96875 578.828125 1020.789062 586.699219 1023.949219 594.488281 C 1030.171875 579.109375 1046.351562 558.28125 1063.078125 555.050781 C 1050.898438 591.679688 1066.179688 639.539062 1075.398438 674.921875 L 1075.269531 674.898438 C 1078.488281 670.96875 1084.109375 668.109375 1087.378906 664.429688 C 1090.53125 682.328125 1099.171875 700.378906 1101.410156 716.671875 C 1110.191406 711.789062 1113.910156 700.300781 1122.871094 695.710938 C 1129.25 722.261719 1131.789062 768.25 1144.828125 792.429688 C 1151.390625 782.859375 1165.710938 760.808594 1179.910156 748.761719 C 1182.488281 762.398438 1187.488281 768.601562 1190.558594 777.148438 C 1197.679688 756.988281 1213.710938 725.929688 1236.75 720.589844 C 1240.269531 738.519531 1239.648438 795.898438 1235.730469 820.671875 C 1242.839844 817.519531 1249.519531 812.390625 1255.738281 808.53125 C 1262.058594 851.449219 1261.03125 900.300781 1257.761719 935.710938 C 1263.929688 932.980469 1271.761719 929.128906 1278.121094 927.140625 C 1280.339844 944.929688 1271.398438 979.828125 1265.429688 996.328125 C 1267.179688 996.578125 1286.269531 984.191406 1284.96875 980.441406 C 1295.171875 1009.488281 1289.578125 1059.339844 1277.320312 1100.5 L 1288.328125 1094.300781 C 1288.160156 1113.8125 1292.5 1123.460938 1294.03125 1139.992188 C 1303.359375 1124.179688 1302.101562 1045.238281 1322.121094 1028.640625 C 1326.570312 1037.46875 1327.390625 1041.699219 1330.769531 1046.96875 C 1335.820312 1024.261719 1368.21875 969.519531 1383.128906 950.550781 C 1382.179688 967.371094 1383.410156 979.011719 1388.058594 990.378906 C 1387.621094 969.550781 1430.941406 904.589844 1454.148438 896.820312 C 1451.820312 903.171875 1449.519531 911.898438 1451.980469 919.140625 C 1477.121094 895.941406 1516.121094 873.621094 1549.539062 864.148438 C 1537.671875 887.289062 1548.75 915.75 1533.160156 936.339844 C 1538.539062 930.871094 1544.960938 925.519531 1551.351562 920.820312 "/>
<path fill-rule="evenodd" fill="rgb(25.87738%, 22.75238%, 18.431091%)" fill-opacity="1" d="M 895.378906 343.191406 C 897.902344 325.621094 899.617188 313.839844 899.617188 313.839844 C 898.675781 316.320312 897.027344 327.519531 895.378906 343.191406 Z M 1564.179688 1785.441406 C 1569.308594 1778.089844 1568.800781 1774.335938 1568.601562 1766.191406 C 1559.519531 1766.558594 1552.210938 1759.835938 1544.660156 1755.9375 C 1536.558594 1751.664062 1534.460938 1738.671875 1525.980469 1735.046875 C 1507.398438 1727.082031 1274.621094 1515.144531 1274.628906 1515.296875 C 1226.359375 1464.621094 1128.269531 1349.8125 1075.75 1247.203125 C 1026.210938 1150.179688 988.925781 1062.398438 959.496094 971.699219 C 928.617188 876.578125 903.765625 751.050781 894.671875 644.191406 C 889.832031 588.410156 885.386719 535.699219 885.890625 478.300781 C 886.136719 448.488281 890.878906 353.898438 899.367188 315.699219 C 887.160156 370.871094 879.992188 457.339844 880.519531 485.179688 C 881.867188 556.5 885.117188 595.070312 889.867188 651.160156 C 898.9375 758.828125 921.144531 878.570312 952.304688 974.480469 C 981.863281 1065.609375 1015.128906 1164.765625 1068.53125 1260.492188 C 1099.300781 1315.667969 1157.859375 1396.023438 1207.878906 1456.324219 C 1228.039062 1480.460938 1253.191406 1508.789062 1267.371094 1523.054688 C 1302.410156 1558.496094 1433.78125 1697.210938 1461.019531 1722.949219 C 1473.429688 1734.4375 1489.78125 1744.085938 1502.058594 1755.617188 C 1514.699219 1767.382812 1528.550781 1773.207031 1539.421875 1786.777344 C 1542.371094 1790.460938 1544.800781 1794.449219 1546.898438 1798.699219 C 1552.441406 1793.472656 1559.25 1792.386719 1564.179688 1785.441406 "/>
<path fill-rule="evenodd" fill="rgb(25.87738%, 22.75238%, 18.431091%)" fill-opacity="1" d="M 1173.378906 1403.265625 C 1173.378906 1403.265625 1178.449219 1397.738281 1187.28125 1388.339844 C 1195.839844 1378.652344 1209.410156 1365.980469 1223.660156 1349.03125 C 1230.699219 1340.488281 1238.328125 1331.140625 1246.378906 1321.464844 C 1254.789062 1312.035156 1262.210938 1300.8125 1270.21875 1289.636719 C 1277.910156 1278.105469 1287.160156 1267.140625 1294.140625 1254.421875 C 1301.621094 1242.003906 1309.261719 1229.449219 1316.839844 1216.863281 C 1323.691406 1203.785156 1330.5 1190.695312 1337.21875 1177.847656 C 1344.28125 1165.148438 1349.621094 1151.84375 1355.628906 1139.382812 C 1361.390625 1126.847656 1367.269531 1114.796875 1372.101562 1103.050781 C 1377.109375 1091.410156 1381.820312 1080.46875 1386.25 1070.171875 C 1394.851562 1049.96875 1402.019531 1032.871094 1407.171875 1020.769531 C 1412.269531 1008.949219 1415.21875 1002.070312 1415.21875 1002.070312 C 1415.230469 1002.070312 1412.859375 1009.101562 1408.601562 1021.308594 C 1404.269531 1033.550781 1398.351562 1051.101562 1390.339844 1071.839844 C 1386.359375 1082.210938 1381.949219 1093.5 1377.398438 1105.238281 C 1372.941406 1117.230469 1367.378906 1129.441406 1361.789062 1142.171875 C 1355.921875 1154.839844 1350.839844 1168.277344 1343.761719 1181.089844 C 1337.148438 1194.148438 1330.238281 1207.316406 1323.421875 1220.476562 C 1315.621094 1233.214844 1307.828125 1245.890625 1300.238281 1258.339844 C 1292.921875 1271.128906 1283.480469 1282.054688 1275.53125 1293.492188 C 1267.238281 1304.683594 1259.429688 1315.671875 1250.640625 1325.007812 C 1242.21875 1334.464844 1234.109375 1343.511719 1226.71875 1351.871094 C 1211.789062 1368.296875 1197.511719 1380.269531 1188.269531 1389.328125 C 1178.851562 1398.097656 1173.359375 1403.253906 1173.378906 1403.265625 "/>
<path fill-rule="evenodd" fill="rgb(25.87738%, 22.75238%, 18.431091%)" fill-opacity="1" d="M 1164.511719 1408.605469 C 1164.511719 1408.605469 1156.738281 1410.765625 1143.359375 1414.503906 C 1129.96875 1418.488281 1110.359375 1422.621094 1086.558594 1426.058594 C 1074.628906 1427.570312 1061.75 1429.378906 1047.960938 1429.605469 C 1034.140625 1430.59375 1019.550781 1430.035156 1004.550781 1429.558594 C 989.609375 1428.308594 973.964844 1427.488281 958.371094 1424.582031 C 942.699219 1422.324219 927.039062 1418.675781 911.386719 1414.984375 C 896.039062 1410.480469 880.476562 1406.339844 865.660156 1400.839844 C 850.667969 1395.902344 836.4375 1389.683594 822.496094 1384.09375 C 808.804688 1377.855469 795.453125 1372.234375 783.222656 1365.902344 C 770.839844 1359.921875 759.277344 1353.996094 748.804688 1348.203125 C 727.632812 1336.933594 710.367188 1326.855469 698.378906 1319.730469 C 686.402344 1312.554688 679.535156 1308.417969 679.535156 1308.417969 C 679.53125 1308.429688 686.691406 1312.054688 699.113281 1318.386719 C 711.542969 1324.765625 729.3125 1333.804688 750.777344 1344.253906 C 761.507812 1349.589844 773.21875 1355.097656 785.6875 1360.703125 C 797.992188 1366.601562 811.433594 1371.90625 825.0625 1377.910156 C 838.972656 1383.214844 853.230469 1389.023438 868.070312 1393.894531 C 882.785156 1399.339844 898.097656 1403.386719 913.277344 1407.703125 C 928.703125 1411.417969 944.121094 1415.164062 959.53125 1417.433594 C 974.808594 1420.503906 990.191406 1421.503906 1004.921875 1423.039062 C 1019.78125 1423.6875 1034.070312 1424.753906 1047.671875 1424.019531 C 1061.460938 1424.140625 1074.199219 1422.945312 1086.109375 1421.839844 C 1109.75 1419.398438 1129.460938 1416.277344 1143.039062 1413.109375 C 1156.601562 1410.308594 1164.5 1408.605469 1164.511719 1408.605469 "/>
<path fill-rule="evenodd" fill="rgb(25.87738%, 22.75238%, 18.431091%)" fill-opacity="1" d="M 986.777344 1425.328125 C 986.777344 1425.328125 973.636719 1433.5625 953.488281 1445.011719 C 948.378906 1447.847656 942.84375 1451.050781 937.15625 1454.175781 C 931.421875 1457.535156 925.113281 1460.554688 918.617188 1463.808594 C 912.148438 1467.035156 905.394531 1470.378906 898.582031 1473.746094 C 891.695312 1477.027344 884.691406 1480.347656 877.6875 1483.75 C 870.515625 1486.601562 863.261719 1489.417969 856.214844 1492.183594 C 849.089844 1494.976562 842.042969 1497.554688 835.226562 1500.214844 C 828.414062 1502.632812 821.972656 1505.597656 815.441406 1507.003906 C 809.113281 1508.601562 803.0625 1510.25 797.261719 1511.671875 C 786.328125 1514.359375 776.796875 1516.644531 769.96875 1518.277344 C 763.386719 1519.789062 759.5625 1520.566406 759.5625 1520.566406 C 759.570312 1520.570312 763.246094 1519.195312 769.585938 1516.835938 C 776.222656 1514.417969 785.363281 1511.191406 795.929688 1507.507812 C 801.5 1505.609375 807.425781 1503.585938 813.621094 1501.554688 C 819.957031 1499.746094 826.152344 1496.429688 832.90625 1493.851562 C 839.601562 1491.121094 846.457031 1488.324219 853.417969 1485.464844 C 860.457031 1482.59375 867.597656 1479.730469 874.726562 1476.910156 C 881.652344 1473.605469 888.695312 1470.328125 895.492188 1467.183594 C 902.394531 1464.019531 909.175781 1460.894531 915.753906 1457.921875 C 922.3125 1454.867188 928.792969 1452.34375 934.726562 1449.269531 C 940.546875 1446.539062 946.316406 1443.773438 951.585938 1441.253906 C 972.503906 1431.402344 986.777344 1425.328125 986.777344 1425.328125 "/>
<path fill-rule="evenodd" fill="rgb(25.87738%, 22.75238%, 18.431091%)" fill-opacity="1" d="M 892.484375 1409.703125 C 892.484375 1409.703125 889.121094 1408.234375 883.621094 1405.765625 C 878.238281 1402.789062 869.320312 1400.136719 861.113281 1393.214844 C 856.832031 1390.070312 851.984375 1386.464844 847.191406 1382.949219 C 842.605469 1378.929688 837.996094 1374.378906 833.273438 1369.699219 C 828.410156 1365.066406 823.554688 1360.128906 819.109375 1354.699219 C 814.554688 1349.472656 809.992188 1344.046875 805.398438 1338.625 C 801.109375 1333.050781 796.730469 1327.445312 792.449219 1321.9375 C 788.238281 1316.535156 784.128906 1311.054688 780.121094 1305.800781 C 776.148438 1300.632812 772.269531 1295.574219 768.617188 1290.578125 C 764.957031 1286.027344 761.441406 1281.488281 758.101562 1277.21875 C 751.871094 1268.683594 745.507812 1262.613281 741.65625 1257.863281 C 737.585938 1253.101562 735.289062 1250.425781 735.289062 1250.425781 C 735.308594 1250.441406 737.964844 1252.703125 742.6875 1256.679688 C 747.199219 1261 754.46875 1266.265625 761.460938 1274.3125 C 765.148438 1278.355469 769.039062 1282.601562 773.054688 1286.945312 C 777.230469 1291.472656 781.101562 1296.433594 785.371094 1301.648438 C 789.59375 1306.769531 793.847656 1312.046875 798.183594 1317.453125 C 802.527344 1322.863281 806.871094 1328.375 811.296875 1333.914062 C 815.746094 1339.316406 820.191406 1344.707031 824.550781 1350.003906 C 828.8125 1355.46875 833.335938 1360.507812 837.949219 1365.164062 C 842.535156 1369.777344 846.570312 1374.746094 850.890625 1378.894531 C 855.339844 1382.636719 859.6875 1386.429688 863.691406 1389.875 C 871.089844 1397.320312 879.34375 1400.746094 884.347656 1404.496094 C 889.390625 1407.769531 892.484375 1409.703125 892.484375 1409.703125 "/>
<path fill-rule="evenodd" fill="rgb(25.87738%, 22.75238%, 18.431091%)" fill-opacity="1" d="M 1245.929688 1322.910156 C 1245.929688 1322.910156 1259.269531 1312.246094 1280.238281 1297.511719 C 1285.519531 1293.847656 1291.371094 1289.898438 1297.320312 1285.753906 C 1303.308594 1281.621094 1309.949219 1277.542969 1316.78125 1273.296875 C 1323.660156 1269.140625 1330.519531 1264.671875 1337.929688 1260.585938 C 1345.300781 1256.578125 1352.890625 1252.488281 1360.421875 1248.367188 C 1368.121094 1244.722656 1375.921875 1241.003906 1383.53125 1237.367188 C 1391.019531 1233.574219 1398.890625 1230.757812 1406.421875 1227.847656 C 1413.941406 1225.121094 1420.988281 1221.835938 1428.179688 1219.945312 C 1435.101562 1217.933594 1441.761719 1215.929688 1448.058594 1214.070312 C 1460.359375 1210.285156 1471.101562 1209.0625 1478.351562 1207.453125 C 1485.710938 1206.085938 1489.890625 1205.300781 1489.890625 1205.300781 C 1489.898438 1205.3125 1485.808594 1206.65625 1478.640625 1208.949219 C 1471.671875 1211.367188 1461.230469 1213.640625 1449.339844 1218.320312 C 1443.261719 1220.523438 1436.828125 1222.945312 1430.128906 1225.339844 C 1423.121094 1227.644531 1416.238281 1231.210938 1408.898438 1234.132812 C 1401.648438 1237.226562 1394 1240.289062 1386.589844 1244.039062 C 1379.128906 1247.75 1371.429688 1251.367188 1363.851562 1255.046875 C 1356.351562 1259.070312 1348.820312 1263.015625 1341.5 1266.976562 C 1334.019531 1270.742188 1327.101562 1275.039062 1320.140625 1278.933594 C 1313.25 1282.996094 1306.378906 1286.59375 1300.230469 1290.441406 C 1294.078125 1294.105469 1288.019531 1297.777344 1282.488281 1301.019531 C 1261.339844 1313.734375 1245.921875 1322.910156 1245.929688 1322.910156 "/>
<path fill-rule="evenodd" fill="rgb(25.87738%, 22.75238%, 18.431091%)" fill-opacity="1" d="M 1214.109375 1360.378906 C 1214.109375 1360.378906 1215.828125 1354.859375 1218.738281 1345.59375 C 1221.378906 1336.160156 1224.050781 1322.386719 1225.230469 1305.703125 C 1225.929688 1297.320312 1225.710938 1288.242188 1225.859375 1278.632812 C 1225.28125 1269.089844 1225.179688 1258.933594 1223.949219 1248.539062 C 1223.089844 1238.078125 1221.730469 1227.3125 1220.070312 1216.414062 C 1218.570312 1205.449219 1216.46875 1194.5 1214.519531 1183.429688 C 1212.390625 1172.398438 1210.320312 1161.410156 1207.859375 1150.605469 C 1205.421875 1139.828125 1203.058594 1129.175781 1200.699219 1118.941406 C 1198.339844 1108.710938 1196.050781 1098.808594 1193.828125 1089.308594 C 1191.671875 1079.929688 1189.550781 1071.058594 1187.609375 1062.761719 C 1183.828125 1046.28125 1180.839844 1032.519531 1178.910156 1022.820312 C 1177.148438 1013.121094 1176.101562 1007.621094 1176.101562 1007.621094 C 1176.089844 1007.628906 1177.648438 1012.96875 1180.390625 1022.441406 C 1183.289062 1032.140625 1187.25 1045.738281 1191.929688 1061.648438 C 1194.269531 1069.859375 1196.738281 1078.71875 1199.378906 1087.871094 C 1202 1097.320312 1204.53125 1107.191406 1207.269531 1117.335938 C 1209.871094 1127.550781 1212.621094 1138.128906 1214.980469 1149.023438 C 1217.539062 1159.945312 1219.640625 1170.960938 1221.910156 1182.105469 C 1223.878906 1193.183594 1225.839844 1204.351562 1227.210938 1215.371094 C 1228.710938 1226.453125 1229.871094 1237.351562 1230.488281 1247.945312 C 1231.570312 1258.566406 1231.121094 1268.917969 1231.398438 1278.632812 C 1230.910156 1288.402344 1230.589844 1297.597656 1229.398438 1306.03125 C 1227.300781 1323.023438 1223.511719 1336.773438 1220.121094 1346.039062 C 1216.300781 1355.078125 1214.109375 1360.378906 1214.109375 1360.378906 "/>
<path fill-rule="evenodd" fill="rgb(25.87738%, 22.75238%, 18.431091%)" fill-opacity="1" d="M 1029.28125 1175.382812 C 1029.28125 1175.382812 1031.328125 1169.015625 1034.679688 1158.039062 C 1037.828125 1146.957031 1043.960938 1131.652344 1048.570312 1112.476562 C 1051.109375 1102.988281 1053.921875 1092.601562 1056.78125 1081.730469 C 1059.949219 1070.910156 1061.679688 1059.050781 1064.519531 1047.109375 C 1066.988281 1035.148438 1070.109375 1022.789062 1071.75 1009.929688 C 1073.789062 997.171875 1075.839844 984.210938 1077.910156 971.261719 C 1079.25 958.261719 1080.679688 945.171875 1081.96875 932.378906 C 1083.609375 919.570312 1084.089844 906.890625 1084.589844 894.550781 C 1085 882.308594 1086.160156 870.441406 1085.949219 859.128906 C 1085.859375 847.960938 1085.691406 837.308594 1085.539062 827.378906 C 1086.019531 807.640625 1083.308594 791.351562 1082.890625 779.851562 C 1082.101562 768.339844 1081.660156 761.761719 1081.660156 761.761719 C 1081.671875 761.761719 1082.660156 768.269531 1084.449219 779.640625 C 1085.640625 791.050781 1089.488281 807.328125 1089.96875 827.140625 C 1090.5 837.160156 1091.109375 847.859375 1091.691406 859.140625 C 1092.320312 870.441406 1091.480469 882.46875 1091.421875 894.828125 C 1091.03125 907.230469 1090.921875 920.089844 1089.308594 933 C 1088.03125 945.980469 1086.679688 959.109375 1085.378906 972.269531 C 1083.21875 985.308594 1081.058594 998.339844 1078.910156 1011.210938 C 1077.050781 1024.058594 1073.699219 1036.5 1070.941406 1048.558594 C 1067.890625 1060.609375 1065.609375 1072.359375 1062.101562 1083.191406 C 1058.839844 1093.929688 1055.578125 1104.21875 1052.640625 1113.703125 C 1047.191406 1132.769531 1039.921875 1147.777344 1036.03125 1158.597656 C 1031.75 1169.148438 1029.261719 1175.378906 1029.28125 1175.382812 "/>
<path fill-rule="evenodd" fill="rgb(25.87738%, 22.75238%, 18.431091%)" fill-opacity="1" d="M 983.472656 1069.710938 C 983.472656 1069.710938 978.71875 1067.488281 970.886719 1063.710938 C 966.855469 1061.949219 962.230469 1059.058594 956.984375 1055.738281 C 951.625 1052.71875 945.914062 1048.628906 939.863281 1043.808594 C 933.6875 1039.410156 927.628906 1033.761719 921.167969 1027.808594 C 914.914062 1021.78125 908.402344 1015.148438 902.113281 1007.878906 C 895.90625 1000.671875 889.539062 993.011719 883.617188 984.929688 C 877.527344 977.011719 872.027344 968.441406 866.351562 960.089844 C 860.914062 951.5 855.445312 942.941406 850.46875 934.261719 C 845.242188 925.761719 840.597656 917.101562 835.941406 908.828125 C 831.511719 900.511719 827.152344 892.441406 823.039062 884.691406 C 819.097656 877.050781 815.289062 869.808594 811.699219 862.988281 C 804.996094 849.808594 799.113281 838.460938 794.925781 830.511719 C 790.921875 822.640625 788.585938 818.109375 788.585938 818.109375 C 788.589844 818.121094 791.375 822.328125 796.273438 829.738281 C 801.191406 837.121094 807.882812 847.820312 815.640625 860.820312 C 819.585938 867.441406 823.679688 874.519531 828.101562 881.929688 C 832.453125 889.488281 837.0625 897.328125 841.867188 905.449219 C 846.683594 913.628906 851.714844 922.011719 856.660156 930.539062 C 861.746094 939.089844 867.191406 947.488281 872.597656 955.929688 C 878.203125 964.351562 883.601562 972.78125 889.488281 980.671875 C 895.167969 988.761719 901.183594 996.371094 907.105469 1003.601562 C 913.101562 1010.851562 919.078125 1017.671875 925.085938 1023.890625 C 931.226562 1029.871094 936.710938 1035.871094 942.597656 1040.578125 C 948.175781 1045.589844 953.566406 1050.011719 958.597656 1053.441406 C 963.554688 1057.101562 967.753906 1060.378906 971.636719 1062.46875 C 979.074219 1067.058594 983.453125 1069.710938 983.472656 1069.710938 "/>
<path fill-rule="evenodd" fill="rgb(25.87738%, 22.75238%, 18.431091%)" fill-opacity="1" d="M 919.261719 1023.800781 C 919.261719 1023.800781 915.335938 1023.191406 908.925781 1022.191406 C 902.457031 1020.988281 892.898438 1019.890625 881.894531 1016.988281 C 876.34375 1015.640625 870.222656 1014.140625 864 1012.628906 C 857.6875 1010.898438 850.96875 1009.078125 844.234375 1007.238281 C 837.367188 1005.191406 830.363281 1003.128906 823.132812 1001.03125 C 815.984375 998.878906 808.800781 996.699219 801.503906 994.519531 C 794.304688 992.320312 787.097656 990.179688 779.9375 988.101562 C 772.886719 985.890625 765.8125 984.160156 758.984375 982.21875 C 752.148438 980.539062 745.636719 978.261719 739.269531 977.050781 C 733.101562 975.671875 727.152344 974.25 721.523438 973.011719 C 710.492188 970.160156 701.066406 969.449219 694.621094 968.078125 C 688.023438 966.859375 684.289062 966.179688 684.289062 966.179688 C 684.285156 966.191406 688.070312 966.269531 694.714844 966.511719 C 701.304688 967.078125 710.96875 966.609375 722.238281 968.609375 C 728.046875 969.550781 734.136719 970.429688 740.441406 971.378906 C 747.039062 972.269531 753.609375 974.160156 760.671875 975.710938 C 767.578125 977.328125 774.832031 978.808594 781.972656 980.988281 C 789.136719 983.128906 796.4375 985.199219 803.75 987.308594 C 810.992188 989.609375 818.203125 991.890625 825.332031 994.179688 C 832.417969 996.46875 839.355469 998.730469 846.09375 1000.898438 C 852.800781 1003.148438 859.378906 1005.328125 865.558594 1007.378906 C 871.636719 1009.269531 877.53125 1011.179688 883.003906 1012.941406 C 903.78125 1019.191406 919.253906 1023.789062 919.261719 1023.800781 "/>
<path fill-rule="evenodd" fill="rgb(25.87738%, 22.75238%, 18.431091%)" fill-opacity="1" d="M 1067.839844 1048.929688 C 1067.839844 1048.929688 1068.699219 1045.828125 1070.160156 1040.699219 C 1071.96875 1035.53125 1073.429688 1027.648438 1077.660156 1019.21875 C 1079.609375 1014.898438 1081.71875 1010.128906 1083.949219 1005.351562 C 1086.429688 1000.601562 1089.371094 995.71875 1092.359375 990.621094 C 1095.289062 985.488281 1098.539062 980.269531 1102.171875 975.289062 C 1105.75 970.21875 1109.441406 965.171875 1113.089844 960.070312 C 1117.070312 955.25 1121.039062 950.371094 1124.910156 945.621094 C 1128.761719 940.71875 1133.011719 936.378906 1137.011719 932.070312 C 1140.980469 927.761719 1144.75 923.488281 1148.640625 919.820312 C 1152.339844 916.140625 1155.960938 912.660156 1159.398438 909.21875 C 1166.121094 902.660156 1172.101562 897.640625 1176.128906 894.03125 C 1180.351562 890.46875 1182.730469 888.449219 1182.730469 888.449219 C 1182.738281 888.460938 1180.691406 890.898438 1177.289062 895.128906 C 1173.550781 899.46875 1168.421875 905.519531 1162.628906 912.28125 C 1159.429688 915.96875 1156.28125 919.769531 1152.808594 923.679688 C 1149.328125 927.878906 1145.679688 932.171875 1142.039062 936.53125 C 1138.320312 940.980469 1134.300781 945.46875 1130.621094 950.339844 C 1126.800781 955.058594 1122.921875 959.910156 1119.050781 964.660156 C 1115.351562 969.628906 1111.679688 974.570312 1108.109375 979.460938 C 1104.238281 984.210938 1101.058594 989.21875 1097.851562 994.148438 C 1094.828125 999.019531 1091.46875 1003.460938 1088.820312 1008 C 1086.238281 1012.558594 1083.71875 1016.96875 1081.46875 1021.039062 C 1076.480469 1029.019531 1074.058594 1036.328125 1071.558594 1041.199219 C 1069.230469 1046.019531 1067.851562 1048.921875 1067.839844 1048.929688 "/>
<path fill-rule="evenodd" fill="rgb(25.87738%, 22.75238%, 18.431091%)" fill-opacity="1" d="M 926.644531 885.96875 C 926.644531 885.96875 926.355469 882.320312 925.933594 876.390625 C 925.839844 870.261719 924.097656 861.25 925.800781 850.761719 C 926.40625 845.378906 926.992188 839.609375 927.601562 833.628906 C 928.601562 827.601562 930.253906 821.398438 931.769531 814.960938 C 933.261719 808.441406 934.96875 801.730469 937.394531 795.199219 C 939.777344 788.699219 942.160156 782.03125 944.484375 775.28125 C 947.410156 768.828125 950.296875 762.378906 953.085938 756.039062 C 955.769531 749.640625 959.148438 743.671875 962.277344 737.769531 C 965.425781 731.96875 968.335938 726.28125 971.484375 721.140625 C 974.546875 716.070312 977.585938 711.25 980.460938 706.578125 C 985.867188 697.570312 991.230469 690.539062 994.765625 685.460938 C 998.40625 680.539062 1000.429688 677.601562 1000.429688 677.601562 C 1000.441406 677.609375 998.816406 680.78125 996.023438 686.28125 C 993.085938 691.980469 988.960938 699.828125 984.265625 708.820312 C 981.84375 713.589844 979.21875 718.609375 976.558594 723.839844 C 973.933594 729.351562 971.085938 735.050781 968.34375 740.859375 C 965.484375 746.761719 962.410156 752.769531 959.765625 759.121094 C 957.050781 765.378906 954.203125 771.75 951.445312 778.128906 C 949.070312 784.691406 946.671875 791.160156 944.300781 797.601562 C 941.683594 803.921875 939.738281 810.371094 938.101562 816.640625 C 936.488281 822.910156 934.316406 828.921875 933.039062 834.738281 C 932.03125 840.378906 930.988281 846.089844 929.976562 851.230469 C 927.4375 861.441406 928.167969 870.210938 927.378906 876.328125 C 926.972656 882.28125 926.632812 885.960938 926.644531 885.96875 "/>
<path fill-rule="evenodd" fill="rgb(25.87738%, 22.75238%, 18.431091%)" fill-opacity="1" d="M 911.085938 780.230469 C 911.085938 780.230469 903.253906 774.71875 891.9375 765.539062 C 889.078125 763.191406 885.953125 760.589844 882.890625 758.101562 C 880.003906 755.078125 876.789062 751.839844 873.773438 748.769531 C 870.644531 745.488281 867.363281 742.070312 864.0625 738.660156 C 860.890625 735.171875 857.597656 731.53125 854.359375 728.03125 C 851.273438 724.339844 848.15625 720.710938 845.117188 717.089844 C 842.125 713.460938 839.183594 709.871094 836.3125 706.359375 C 833.535156 702.921875 830.839844 699.558594 828.1875 696.230469 L 820.9375 687.210938 C 816.867188 681.820312 813.132812 676.859375 810.355469 673.238281 L 806.585938 667.820312 C 806.585938 667.820312 808.402344 669.390625 811.542969 672.21875 C 814.921875 675.320312 819.378906 679.601562 824.230469 684.191406 C 826.964844 686.898438 829.699219 689.671875 832.519531 692.421875 C 835.445312 695.359375 838.378906 698.601562 841.4375 701.960938 C 844.414062 705.378906 847.515625 708.808594 850.695312 712.308594 C 853.800781 715.859375 856.886719 719.488281 860.042969 723.089844 C 863.203125 726.621094 866.429688 730.230469 869.5 733.851562 C 872.570312 737.359375 875.585938 740.851562 878.480469 744.25 C 881.335938 747.570312 884.171875 751.050781 886.867188 754.230469 L 894.898438 762.511719 C 904.785156 772.78125 911.074219 780.21875 911.085938 780.230469 "/>
<path fill-rule="evenodd" fill="rgb(25.87738%, 22.75238%, 18.431091%)" fill-opacity="1" d="M 1086.738281 910.191406 C 1086.738281 910.191406 1080.980469 904.109375 1073.25 894.71875 L 1067.140625 887.160156 L 1059.789062 878.921875 C 1057.300781 876.121094 1054.628906 873.148438 1051.929688 870.191406 C 1049.308594 867.199219 1046.628906 864.140625 1043.949219 861.089844 C 1041.328125 857.96875 1038.671875 854.769531 1036.078125 851.769531 L 1028.519531 842.609375 L 1021.769531 833.839844 L 1016.410156 825.300781 C 1013.199219 820.03125 1010.628906 815.519531 1008.941406 812.320312 L 1006.359375 807.378906 L 1010.238281 811.5 C 1012.699219 814.179688 1016.121094 818.019531 1019.988281 822.699219 L 1026.210938 830.179688 L 1033.71875 838.261719 L 1041.628906 847 C 1044.261719 850 1046.96875 853.011719 1049.601562 856.140625 L 1057.5 865.488281 L 1064.96875 874.75 L 1071.460938 883.800781 L 1076.710938 892.269531 C 1083.140625 902.890625 1086.730469 910.191406 1086.738281 910.191406 "/>
</svg>
